<svg width="27" height="26" viewBox="0 0 27 26" fill="none" xmlns="http://www.w3.org/2000/svg">
<g clip-path="url(#clip0_21_33)">
<path d="M26.1408 16.075V25.4374H20.7131V16.702C20.7131 14.5076 19.928 13.01 17.9634 13.01C16.4636 13.01 15.5711 14.0193 15.1784 14.9956C15.0352 15.3446 14.9984 15.8304 14.9984 16.319V25.4374H9.56882C9.56882 25.4374 9.64195 10.6425 9.56882 9.10967H14.9979V11.4241C14.9869 11.4414 14.9725 11.46 14.9622 11.4768H14.9979V11.4241C15.7192 10.3131 17.0073 8.72609 19.8906 8.72609C23.4629 8.72603 26.1408 11.0597 26.1408 16.075ZM3.88927 1.23889C2.03182 1.23889 0.816895 2.45723 0.816895 4.05939C0.816895 5.62663 1.99667 6.88195 3.8172 6.88195H3.85347C5.74689 6.88195 6.92443 5.62687 6.92443 4.05939C6.88875 2.45723 5.74689 1.23889 3.88927 1.23889ZM1.13936 25.4374H6.56687V9.10967H1.13936V25.4374Z" fill="#D0D0D0"/>
</g>
<defs>
<clipPath id="clip0_21_33">
<rect width="25.3239" height="25.3239" fill="white" transform="translate(0.816895 0.676025)"/>
</clipPath>
</defs>
</svg>
