<svg width="27" height="27" viewBox="0 0 27 27" fill="none" xmlns="http://www.w3.org/2000/svg">
<path d="M25.3367 6.55816V20.8813C25.3367 23.6935 23.0569 25.9732 20.2447 25.9732H5.9216C3.10936 25.9732 0.829628 23.6935 0.829628 20.8813V6.55816C0.829628 3.74592 3.10936 1.46619 5.9216 1.46619H20.2447C23.0569 1.46619 25.3367 3.74592 25.3367 6.55816ZM10.4872 20.6635C16.5318 22.7491 22.1125 17.1684 20.0269 11.1238C19.3242 9.08649 17.7165 7.47867 15.6792 6.77595C9.63445 4.69036 4.05381 10.271 6.13939 16.3158C6.84211 18.3531 8.44979 19.9607 10.4872 20.6635ZM4.57943 6.30926C4.67561 6.81289 5.09233 7.10592 5.52342 7.10592C5.78578 7.10592 6.05323 6.99762 6.25801 6.76263C6.2761 6.74184 6.293 6.71955 6.30796 6.69637C6.51932 6.37328 6.5259 5.98946 6.34626 5.67818C6.21911 5.45785 6.01389 5.3005 5.76813 5.23468C5.52267 5.16857 5.266 5.20252 5.04597 5.32981C4.73454 5.50931 4.54846 5.84511 4.5697 6.23013C4.5712 6.25646 4.57434 6.28323 4.57943 6.30926Z" fill="#D0D0D0"/>
<path d="M13.0832 7.76611C16.3661 7.76611 19.0367 10.4367 19.0367 13.7197C19.0367 17.0026 16.3661 19.6732 13.0832 19.6732C9.8002 19.6732 7.12962 17.0026 7.12962 13.7197C7.12962 10.4367 9.8002 7.76611 13.0832 7.76611Z" fill="#D0D0D0"/>
</svg>
