<svg width="27" height="22" viewBox="0 0 27 22" fill="none" xmlns="http://www.w3.org/2000/svg">
<path d="M26.1408 2.61306C25.1687 3.03948 24.1329 3.32213 23.053 3.45937C24.1639 2.79604 25.0119 1.75368 25.4105 0.497281C24.3747 1.11486 23.231 1.55108 22.0122 1.79452C21.0287 0.747253 19.6269 0.0986328 18.0976 0.0986328C15.1306 0.0986328 12.742 2.50686 12.742 5.45914C12.742 5.88393 12.778 6.29238 12.8662 6.68122C8.41082 6.46393 4.46845 4.32855 1.82006 1.07565C1.35769 1.87784 1.08648 2.79604 1.08648 3.78449C1.08648 5.64049 2.04225 7.28573 3.46693 8.23824C2.60592 8.2219 1.76124 7.97193 1.04563 7.57818C1.04563 7.59452 1.04563 7.61576 1.04563 7.637C1.04563 10.2413 2.90327 12.4044 5.33927 12.9027C4.90304 13.022 4.42761 13.0792 3.9342 13.0792C3.5911 13.0792 3.24473 13.0596 2.91961 12.9877C3.61397 15.11 5.58434 16.6703 7.92721 16.7209C6.10389 18.1473 3.78879 19.0066 1.28254 19.0066C0.843042 19.0066 0.421521 18.987 0 18.9331C2.37392 20.464 5.18732 21.3381 8.2213 21.3381C18.0829 21.3381 23.4745 13.1691 23.4745 6.08815C23.4745 5.85125 23.4663 5.62252 23.4549 5.39542C24.5185 4.6406 25.4122 3.6979 26.1408 2.61306Z" fill="#D0D0D0"/>
</svg>
